<svg xmlns="http://www.w3.org/2000/svg" width="60" height="60" viewBox="0 0 60 60">
    <defs>
        <linearGradient id="a" x1="50%" x2="50%" y1="0%" y2="100%">
            <stop offset="0%" stop-color="#021B9C"/>
            <stop offset="100%" stop-color="#075AFF"/>
        </linearGradient>
    </defs>
    <g fill="none" fill-rule="evenodd">
        <circle cx="30" cy="30" r="30" fill="#FFF"/>
        <path fill="#021B9C" d="M22.872 41.57l-.063-.418c-.747-4.857-4.774-8.382-9.578-8.382a9.588 9.588 0 0 0-3.045.495l-.46.156-1.522-4.701.462-.159a14.428 14.428 0 0 1 4.565-.742c7.442 0 13.674 5.676 14.498 13.199l.059.552h-4.916z"/>
        <path fill="url(#a)" d="M14.669 21.18l.039-.533C15.538 9.07 25.149.002 36.583.002a21.5 21.5 0 0 1 6.844 1.114l.465.155-1.52 4.699-.465-.151a16.749 16.749 0 0 0-5.324-.866c-8.727 0-16.174 6.928-16.95 15.773l-.041.453h-4.923z" transform="translate(8.203 20.39)"/>
        <path fill="#075AFF" d="M25.338 44.08c-1.36 0-2.467-1.127-2.467-2.51 0-1.382 1.107-2.508 2.467-2.508s2.466 1.126 2.466 2.507c0 1.384-1.107 2.51-2.466 2.51"/>
    </g>
</svg>
