<svg xmlns="http://www.w3.org/2000/svg" fill="none" viewBox="0 0 110 28">
  <path fill="#2FBC8B" d="m25.91 19.37 5.23-1.12c.46 3.12 2.3 5.2 6.06 5.2 3.04 0 4.77-1.35 4.77-3.46 0-2.38-2.79-3.13-5.97-4-4.25-1.15-9.2-2.5-9.2-8.14C26.8 2.88 30.62 0 36.92 0c5.13 0 9.1 2.62 9.87 7.04l-4.88 1.54c-.65-2.43-2.27-4.16-5.3-4.16-2.73 0-4.5 1.07-4.5 2.93 0 2.2 2.61 2.88 5.67 3.69 4.31 1.13 9.51 2.5 9.51 8.7 0 5.03-3.42 8.26-10.14 8.26-6.1-.04-10.55-2.9-11.25-8.63Z"/>
  <path fill="#2FBC8B" fill-rule="evenodd" d="M69.35 6.94c-5.73 0-9.84 4.54-9.84 10.5 0 6.27 4.07 10.52 10.03 10.56 4.03 0 7.45-2.08 8.91-5.77l-4.53-1.6c-.61 1.96-2.27 2.96-4.34 2.96-2.65 0-4.54-1.85-4.92-4.93h13.9v-1.6c0-5.65-3.22-10.12-9.21-10.12Zm3.89 8.04h-8.37c.65-2.45 2.32-3.74 4.45-3.74 2.61 0 3.88 1.74 3.92 3.74Z" clip-rule="evenodd"/>
  <path fill="#2FBC8B" d="M80.31 27.71h5.39V16.02c0-2.66 1.8-4 3.57-4 2.23 0 3.08 1.62 3.08 3.89V27.7h5.38V16.02c0-2.66 1.8-4 3.57-4 2.22 0 3.07 1.62 3.07 3.89v11.81h5.38V14.36c0-4.38-2.69-7.27-6.84-7.27a8.39 8.39 0 0 0-6.26 2.78 6.24 6.24 0 0 0-5.46-2.78 6.95 6.95 0 0 0-5.5 2.47V7.48h-5.38v20.23ZM58.37 8.7v5.18h-4.64v6.46c0 2.04 1.38 2.92 3.26 2.92.46 0 .96-.03 1.38-.15v4.46c-.73.2-1.84.31-2.6.31-4.46 0-6.92-2.92-6.92-8V3.75h4.88V8.7h4.64ZM1.95 17.1l-1.8 2.53a.78.78 0 0 0 .2 1.1l10.32 7.12c.37.25.87.16 1.12-.2l1.8-2.53a.78.78 0 0 0-.2-1.1L3.08 16.9a.81.81 0 0 0-1.12.2ZM7.64 3.18 9.44.65a.81.81 0 0 1 1.12-.2L20.62 7.4c.37.25.45.74.2 1.1l-1.8 2.53a.81.81 0 0 1-1.12.2L7.84 4.28a.78.78 0 0 1-.2-1.1Zm-5.18-.14L.66 5.57a.78.78 0 0 0 .2 1.1L18 18.5c.36.25.86.16 1.12-.2l1.8-2.53a.78.78 0 0 0-.2-1.1L3.58 2.84a.81.81 0 0 0-1.12.2ZM.18 12.45l1.8-2.54a.81.81 0 0 1 1.12-.19l17.15 11.81c.36.25.45.75.2 1.1l-1.81 2.54a.81.81 0 0 1-1.12.2L.38 13.54a.78.78 0 0 1-.2-1.1Z"/>
</svg>